<svg width="28" height="27" viewBox="0 0 28 27" fill="none" xmlns="http://www.w3.org/2000/svg">
<path d="M16.0429 20.8063C13.8665 19.998 11.628 19.8736 9.57599 20.4333C8.14581 20.8063 6.77781 21.5525 5.53417 22.4852L4.66361 23.2314L4.41489 23.4802L4.97452 23.9776C5.0367 23.9776 5.03671 24.0398 5.09889 24.102C5.22325 24.2263 5.34763 24.2885 5.53417 24.4129L5.90725 24.6616L6.28034 24.3507C6.34252 24.2885 6.46689 24.1642 6.59125 24.102C7.71052 23.1692 8.95415 22.5474 10.26 22.2365C11.9389 21.8012 13.7422 21.8634 15.5454 22.5474C17.0378 23.1071 20.0847 23.7911 23.7534 22.2365L23.8778 22.1743L24.0643 21.9878C24.0643 21.9256 24.1265 21.9256 24.1887 21.8634C24.4996 21.4903 24.8105 21.1172 25.0593 20.682L26.3029 18.7543L24.3131 19.8736C21.3905 21.4903 18.7167 21.8012 16.0429 20.8063Z" fill="#6B7FD7"/>
<path d="M7.52398 14.0907C9.20289 13.6554 11.0062 13.7176 12.8094 14.4016C14.7992 15.1478 19.8982 16.2049 25.6189 11.0438L26.5516 10.1111L26.6138 10.0489L26.8625 9.80018L26.7382 9.48927C26.676 9.24054 26.5516 8.92964 26.4272 8.61873L26.1163 7.74817L25.4945 8.36999C25.4323 8.49435 25.308 8.55653 25.1836 8.6809C22.4476 11.4791 18.2192 14.3395 13.3691 12.5984C11.1927 11.79 8.95416 11.6656 6.90216 12.2253C4.91234 12.7849 3.17125 13.842 1.55452 15.3344V15.2722L0.621792 16.2671C0.621792 16.3293 0.559621 16.3293 0.497439 16.3915L0.310883 16.578L0.373068 16.8267C0.43525 17.1376 0.55961 17.4485 0.621792 17.7594L0.994886 18.7544L1.6167 17.946C1.67889 17.8216 1.80325 17.7595 1.86543 17.6351C3.17125 16.4536 4.97452 14.7747 7.52398 14.0907Z" fill="#6B7FD7"/>
<path d="M1.49235 12.9715C2.92253 11.4791 4.53925 10.5464 6.28034 10.0489C7.95925 9.61365 9.76252 9.67583 11.5658 10.3598C17.1622 12.4118 22.0123 9.05402 24.1265 7.25074L24.9349 6.44239L25.2458 6.19364L24.9971 5.82057C24.8105 5.63402 24.6862 5.38529 24.4996 5.13656L24.1265 4.6391L23.6912 5.07438C23.6291 5.13656 23.5047 5.26092 23.4425 5.3231C20.8309 7.81038 16.7891 10.3598 12.1876 8.61875C10.0112 7.81039 7.7727 7.68602 5.7207 8.24566C4.41489 8.61875 3.17125 9.24056 1.92761 10.0489L0.621788 11.106C0.497424 11.2304 0.435242 11.2926 0.310879 11.4169L0.186526 11.5413V11.7278C0.124345 12.1631 0.124337 12.5984 0.0621551 12.9715L-3.05176e-05 14.526L1.05707 13.4067C1.18143 13.2824 1.3058 13.0958 1.49235 12.9715Z" fill="#6B7FD7"/>
<path d="M17.8462 25.0347L17.7218 25.4078L17.8462 25.0347C17.6596 24.9725 17.5353 24.9103 17.3487 24.8481C15.1724 24.0398 12.9338 23.9154 10.8818 24.4751C10.4465 24.5994 10.0113 24.7238 9.576 24.9103L8.08362 25.5943L7.71054 25.7809L8.95418 26.2162C9.32727 26.3405 9.70035 26.4649 10.0734 26.5892L10.26 26.6514L10.4465 26.5892C10.6331 26.5271 10.8196 26.4027 11.0062 26.4027C11.1305 26.4027 11.2549 26.3405 11.3793 26.2783C12.8716 25.9052 14.4883 25.9052 16.2294 26.4649C16.416 26.5271 16.5404 26.5893 16.7269 26.6514L17.0378 26.7758L17.2244 26.7136C17.6596 26.5892 18.1571 26.4649 18.5302 26.2783L20.2713 25.6565L18.468 25.2212C18.2814 25.1591 18.0327 25.0969 17.8462 25.0347Z" fill="#6B7FD7"/>
<path d="M27.36 12.1631L26.4273 13.0958C26.3029 13.2202 26.1786 13.3445 26.0542 13.4689C23.5047 15.894 19.4007 18.5056 14.7993 16.7645C12.6229 15.9562 10.3844 15.8318 8.33237 16.3915C6.40473 16.9511 4.66363 17.946 3.10908 19.4384L2.30073 20.3089L2.052 20.6198L2.30073 20.9929C2.48727 21.2416 2.61164 21.4282 2.73601 21.6769L3.10908 22.2365L3.54436 21.6769C3.60654 21.6147 3.7309 21.4904 3.79309 21.4282C5.28545 19.8114 6.90218 18.8165 8.76763 18.3191C10.4465 17.8838 12.2498 17.946 14.0531 18.63C15.6076 19.1896 17.2244 19.3762 18.8411 19.1896C21.7015 18.8787 24.5618 17.262 26.676 15.4587C26.8004 15.3344 26.9247 15.2722 27.0491 15.1478L27.2356 14.9613V14.7747C27.2356 14.4016 27.2978 13.9664 27.2978 13.5933L27.36 12.1631Z" fill="#6B7FD7"/>
<path d="M3.73088 6.44238L3.54434 6.06928L3.73088 6.44238C4.10397 6.25583 4.53926 6.13146 4.91235 6.0071C6.59126 5.57183 8.39453 5.63401 10.1978 6.31801C11.3793 6.75328 12.5607 6.93983 13.8665 6.93983C16.4782 6.93983 19.0898 6.0071 21.5149 4.20383L22.4476 3.45764L22.7585 3.20892L22.1989 2.77364C22.0123 2.58709 21.7636 2.40055 21.5149 2.27619L21.1418 2.02747L20.8309 2.27619C20.7065 2.33837 20.6443 2.46273 20.52 2.52491C17.2243 5.01219 13.9287 5.69619 10.8196 4.51474C8.58108 3.70638 6.34252 3.51983 4.10397 4.20383C3.91743 4.26601 3.73088 4.32819 3.48216 4.39037L3.3578 4.45255L3.17125 4.63909C3.17125 4.70127 3.10908 4.70128 3.04689 4.76346C2.79817 5.13655 2.48725 5.44747 2.23852 5.82056L1.05707 7.62383L2.98471 6.62892C3.29562 6.62892 3.54433 6.50456 3.73088 6.44238Z" fill="#6B7FD7"/>
<path d="M8.82979 2.21399L9.01633 2.27617C9.82469 2.58708 11.0683 2.89799 12.6229 2.89799C14.2396 2.89799 15.7942 2.5249 17.3487 1.90308L19.2763 0.970353L17.9705 0.535091C17.5974 0.410728 17.2243 0.286364 16.7891 0.224182H16.6025L16.416 0.286349C16.2294 0.348531 16.0429 0.472909 15.8563 0.535091C13.9909 1.21909 12.1254 1.34345 10.3222 0.846C10.1356 0.783818 9.94906 0.721625 9.76252 0.659443L9.57598 0.597258L9.38942 0.659443C9.01633 0.783807 8.64325 0.908178 8.27016 1.09472L6.83997 1.71654L8.33234 2.1518C8.45671 2.08962 8.64325 2.15181 8.82979 2.21399Z" fill="#6B7FD7"/>
</svg>
